<svg width="49" height="48" viewBox="0 0 49 48" fill="none" xmlns="http://www.w3.org/2000/svg">
<circle cx="24.1104" cy="24" r="24" fill="white" fill-opacity="0.16"/>
<g clip-path="url(#clip0_112_627)">
<path d="M24.7798 21.5108C23.9615 21.5108 23.1768 21.8359 22.5983 22.4144C22.0197 22.993 21.6947 23.7777 21.6947 24.5959C21.6947 25.4141 22.0197 26.1988 22.5983 26.7774C23.1768 27.356 23.9615 27.681 24.7798 27.681C25.598 27.681 26.3827 27.356 26.9613 26.7774C27.5398 26.1988 27.8649 25.4141 27.8649 24.5959C27.8649 23.7777 27.5398 22.993 26.9613 22.4144C26.3827 21.8359 25.598 21.5108 24.7798 21.5108ZM24.7798 19.4541C26.1435 19.4541 27.4513 19.9958 28.4156 20.9601C29.3799 21.9244 29.9216 23.2322 29.9216 24.5959C29.9216 25.9596 29.3799 27.2675 28.4156 28.2317C27.4513 29.196 26.1435 29.7378 24.7798 29.7378C23.4161 29.7378 22.1082 29.196 21.1439 28.2317C20.1797 27.2675 19.6379 25.9596 19.6379 24.5959C19.6379 23.2322 20.1797 21.9244 21.1439 20.9601C22.1082 19.9958 23.4161 19.4541 24.7798 19.4541ZM31.4641 19.197C31.4641 19.5379 31.3287 19.8649 31.0876 20.106C30.8466 20.347 30.5196 20.4825 30.1787 20.4825C29.8378 20.4825 29.5108 20.347 29.2697 20.106C29.0287 19.8649 28.8932 19.5379 28.8932 19.197C28.8932 18.8561 29.0287 18.5291 29.2697 18.288C29.5108 18.047 29.8378 17.9115 30.1787 17.9115C30.5196 17.9115 30.8466 18.047 31.0876 18.288C31.3287 18.5291 31.4641 18.8561 31.4641 19.197ZM24.7798 16.369C22.2356 16.369 21.8201 16.3762 20.6365 16.4286C19.8302 16.4667 19.2893 16.5747 18.7875 16.7701C18.3412 16.9428 18.0193 17.1495 17.6768 17.493C17.355 17.804 17.1075 18.1836 16.9529 18.6036C16.7575 19.1075 16.6495 19.6474 16.6125 20.4526C16.559 21.5879 16.5528 21.9849 16.5528 24.5959C16.5528 27.1401 16.56 27.5556 16.6125 28.7392C16.6505 29.5444 16.7585 30.0864 16.9529 30.5872C17.1277 31.0345 17.3334 31.3564 17.6748 31.6978C18.0213 32.0433 18.3432 32.25 18.7854 32.4208C19.2934 32.6172 19.8343 32.7262 20.6365 32.7632C21.7718 32.8167 22.1687 32.8228 24.7798 32.8228C27.3239 32.8228 27.7394 32.8157 28.923 32.7632C29.7272 32.7252 30.2692 32.6172 30.771 32.4228C31.2163 32.249 31.5402 32.0423 31.8817 31.7009C32.2282 31.3543 32.4349 31.0325 32.6056 30.5903C32.801 30.0833 32.91 29.5413 32.947 28.7392C33.0005 27.6039 33.0067 27.2069 33.0067 24.5959C33.0067 22.0517 32.9995 21.6363 32.947 20.4526C32.909 19.6484 32.801 19.1055 32.6056 18.6036C32.4506 18.1841 32.2036 17.8045 31.8827 17.493C31.5718 17.171 31.1921 16.9234 30.772 16.769C30.2681 16.5736 29.7272 16.4657 28.923 16.4286C27.7877 16.3752 27.3908 16.369 24.7798 16.369ZM24.7798 14.3123C27.5738 14.3123 27.9224 14.3225 29.0187 14.374C30.1139 14.4254 30.8595 14.5971 31.5156 14.8521C32.1943 15.1134 32.7661 15.4671 33.3378 16.0379C33.8607 16.5519 34.2654 17.1738 34.5235 17.8601C34.7775 18.5152 34.9503 19.2618 35.0017 20.357C35.0501 21.4532 35.0634 21.8018 35.0634 24.5959C35.0634 27.39 35.0531 27.7386 35.0017 28.8348C34.9503 29.9301 34.7775 30.6756 34.5235 31.3317C34.2661 32.0184 33.8614 32.6404 33.3378 33.154C32.8236 33.6767 32.2018 34.0813 31.5156 34.3397C30.8605 34.5937 30.1139 34.7665 29.0187 34.8179C27.9224 34.8662 27.5738 34.8796 24.7798 34.8796C21.9857 34.8796 21.6371 34.8693 20.5408 34.8179C19.4456 34.7665 18.7001 34.5937 18.044 34.3397C17.3573 34.0821 16.7354 33.6774 16.2217 33.154C15.6987 32.64 15.294 32.0181 15.036 31.3317C14.781 30.6766 14.6092 29.9301 14.5578 28.8348C14.5095 27.7386 14.4961 27.39 14.4961 24.5959C14.4961 21.8018 14.5064 21.4532 14.5578 20.357C14.6092 19.2608 14.781 18.5162 15.036 17.8601C15.2933 17.1734 15.6981 16.5513 16.2217 16.0379C16.7355 15.5147 17.3574 15.11 18.044 14.8521C18.7001 14.5971 19.4446 14.4254 20.5408 14.374C21.6371 14.3256 21.9857 14.3123 24.7798 14.3123Z" fill="white"/>
</g>
<defs>
<clipPath id="clip0_112_627">
<rect width="24.6808" height="24.6808" fill="white" transform="translate(12.4375 12.2556)"/>
</clipPath>
</defs>
</svg>
