<svg width="49" height="48" viewBox="0 0 49 48" fill="none" xmlns="http://www.w3.org/2000/svg">
<circle cx="24.9883" cy="24" r="24" fill="white" fill-opacity="0.16"/>
<g clip-path="url(#clip0_112_642)">
<path d="M20.5179 16.1933C20.5176 16.7389 20.3006 17.2621 19.9146 17.6477C19.5286 18.0333 19.0052 18.2498 18.4596 18.2495C17.9139 18.2493 17.3908 18.0323 17.0052 17.6463C16.6195 17.2603 16.403 16.7369 16.4033 16.1912C16.4036 15.6456 16.6206 15.1225 17.0066 14.7368C17.3926 14.3512 17.916 14.1347 18.4616 14.135C19.0072 14.1353 19.5304 14.3523 19.916 14.7383C20.3016 15.1243 20.5181 15.6477 20.5179 16.1933ZM20.5796 19.773H16.465V32.6515H20.5796V19.773ZM27.0805 19.773H22.9866V32.6515H27.0394V25.8933C27.0394 22.1285 31.946 21.7788 31.946 25.8933V32.6515H36.0091V24.4944C36.0091 18.1477 28.7469 18.3843 27.0394 21.5011L27.0805 19.773Z" fill="white"/>
</g>
<defs>
<clipPath id="clip0_112_642">
<rect width="24.6872" height="24.6872" fill="white" transform="translate(13.3799 11.05)"/>
</clipPath>
</defs>
</svg>
