<svg width="24" height="23" viewBox="0 0 24 23" fill="none" xmlns="http://www.w3.org/2000/svg">
<path d="M2.29587 9.00774C1.46848 8.96623 0.764098 9.60331 0.722587 10.4307C0.681077 11.2581 1.31815 11.9625 2.14554 12.004L2.29587 9.00774ZM23.2018 12.6205C23.8162 12.0648 23.8638 11.1162 23.3081 10.5018L14.2524 0.489561C13.6967 -0.124842 12.7482 -0.172432 12.1338 0.383266C11.5194 0.938965 11.4718 1.88752 12.0275 2.50192L20.0769 11.4017L11.1771 19.4512C10.5627 20.0069 10.5151 20.9554 11.0708 21.5698C11.6265 22.1842 12.5751 22.2318 13.1895 21.6761L23.2018 12.6205ZM2.14554 12.004L22.1204 13.0061L22.2707 10.0099L2.29587 9.00774L2.14554 12.004Z" fill="#DFDFFA"/>
</svg>
