<svg width="24" height="24" viewBox="0 0 24 24" fill="none" xmlns="http://www.w3.org/2000/svg">
<path d="M18.3072 21.4224L12.8327 18.2617C12.9149 17.8138 12.8964 17.3532 12.7785 16.9133C12.6607 16.4735 12.4464 16.0654 12.1512 15.7186L13.7776 12.9016L19.9786 16.4817C20.2135 16.6173 20.4928 16.6541 20.7548 16.5839C21.0168 16.5137 21.2403 16.3422 21.3759 16.1073C21.5115 15.8724 21.5483 15.5932 21.4781 15.3311C21.4079 15.0691 21.2364 14.8456 21.0015 14.71L20.1156 14.1986L23.1843 8.88344C23.5913 8.17861 23.7015 7.341 23.4909 6.55486C23.2802 5.76873 22.7659 5.09847 22.0611 4.69154L14.9743 0.599963C14.2695 0.19303 13.4319 0.0827565 12.6457 0.2934C11.8596 0.504044 11.1893 1.01835 10.7824 1.72318L7.71371 7.03829L6.82786 6.52685C6.59292 6.3912 6.31371 6.35444 6.05167 6.42466C5.78962 6.49487 5.56621 6.66631 5.43056 6.90125C5.29492 7.13619 5.25816 7.4154 5.32837 7.67744C5.39859 7.93949 5.57002 8.16291 5.80497 8.29855L12.0059 11.8787L10.3795 14.6957C9.93164 14.6135 9.47106 14.632 9.0312 14.7498C8.59134 14.8677 8.18322 15.082 7.83645 15.3771L2.36188 12.2164C2.12694 12.0807 1.84773 12.044 1.58569 12.1142C1.32364 12.1844 1.10022 12.3558 0.96458 12.5908C0.828936 12.8257 0.792176 13.1049 0.862391 13.367C0.932606 13.629 1.10404 13.8524 1.33898 13.9881L6.81355 17.1488C6.70356 17.7694 6.78729 18.4087 7.05338 18.98C7.31947 19.5513 7.755 20.0268 8.30079 20.342C8.84658 20.6571 9.47616 20.7965 10.104 20.7413C10.7318 20.6861 11.3273 20.4389 11.8098 20.0334L17.2843 23.1941C17.5193 23.3298 17.7985 23.3665 18.0605 23.2963C18.3226 23.2261 18.546 23.0547 18.6816 22.8197C18.8173 22.5848 18.854 22.3056 18.7838 22.0435C18.7136 21.7815 18.5422 21.5581 18.3072 21.4224ZM9.48542 8.06119L12.5541 2.74607C12.6897 2.51113 12.9132 2.33969 13.1752 2.26948C13.4373 2.19927 13.7165 2.23602 13.9514 2.37167L21.0382 6.46324C21.2732 6.59889 21.4446 6.82231 21.5148 7.08435C21.585 7.3464 21.5483 7.6256 21.4126 7.86054L18.3439 13.1757L9.48542 8.06119ZM9.31166 18.5911C9.13645 18.4899 8.99518 18.3391 8.9057 18.1577C8.81622 17.9762 8.78255 17.7723 8.80896 17.5717C8.83537 17.3711 8.92066 17.1829 9.05405 17.0308C9.18744 16.8787 9.36294 16.7696 9.55836 16.7172C9.75377 16.6648 9.96033 16.6716 10.1519 16.7366C10.3435 16.8017 10.5115 16.922 10.6346 17.0825C10.7578 17.243 10.8306 17.4365 10.8438 17.6383C10.857 17.8402 10.8101 18.0415 10.709 18.2167C10.5733 18.4516 10.3499 18.6231 10.0878 18.6933C9.8258 18.7635 9.5466 18.7267 9.31166 18.5911Z" fill="#323F49"/>
</svg>
