<svg width="24" height="23" viewBox="0 0 24 23" fill="none" xmlns="http://www.w3.org/2000/svg">
<path d="M21.7051 9.00774C22.5325 8.96623 23.2369 9.60331 23.2784 10.4307C23.3199 11.2581 22.6828 11.9625 21.8554 12.004L21.7051 9.00774ZM0.799219 12.6205C0.184815 12.0648 0.137225 11.1162 0.692923 10.5018L9.74854 0.489561C10.3042 -0.124842 11.2528 -0.172432 11.8672 0.383266C12.4816 0.938965 12.5292 1.88752 11.9735 2.50192L3.92405 11.4017L12.8239 19.4512C13.4383 20.0069 13.4858 20.9554 12.9302 21.5698C12.3745 22.1842 11.4259 22.2318 10.8115 21.6761L0.799219 12.6205ZM21.8554 12.004L1.88056 13.0061L1.73024 10.0099L21.7051 9.00774L21.8554 12.004Z" fill="#DFDFFA"/>
</svg>
