<svg width="61" height="61" viewBox="0 0 61 61" fill="none" xmlns="http://www.w3.org/2000/svg">
<rect y="0.5" width="61" height="60" rx="15" fill="#121279"/>
<path d="M18.3905 40.3044L27.8796 32.9587M38.956 30.5652L35.4739 37.8034C35.4182 37.9194 35.3354 38.0204 35.2325 38.0976C35.1295 38.1748 35.0094 38.226 34.8825 38.2469L18.8519 40.8712C18.7075 40.8948 18.5594 40.8784 18.4237 40.8236C18.288 40.7689 18.1699 40.678 18.0822 40.5608C17.9946 40.4436 17.9408 40.3047 17.9266 40.159C17.9125 40.0134 17.9385 39.8666 18.002 39.7348L24.933 25.3295C24.9827 25.226 25.054 25.1345 25.1422 25.0611C25.2304 24.9877 25.3334 24.9341 25.4441 24.904L32.9428 22.8775C33.0953 22.8361 33.2566 22.8408 33.4064 22.891C33.5562 22.9412 33.6878 23.0346 33.7846 23.1594L38.8676 29.7287C38.9585 29.8462 39.015 29.9867 39.0306 30.1344C39.0462 30.2822 39.0204 30.4313 38.956 30.5652Z" stroke="#F8F8F8" stroke-width="1.5" stroke-linecap="round" stroke-linejoin="round"/>
<path d="M39.1708 30.1195L43.3877 26.854C43.9467 26.4211 44.311 25.7838 44.4003 25.0824C44.4896 24.3809 44.2967 23.6727 43.8639 23.1135L41.4172 19.9498C41.2029 19.6728 40.936 19.4407 40.632 19.2668C40.3279 19.093 39.9925 18.9807 39.645 18.9364C39.2976 18.8922 38.9448 18.9168 38.6068 19.009C38.2689 19.1011 37.9524 19.2589 37.6754 19.4734L33.4586 22.7389M31.0418 30.5093C30.8809 30.3016 30.6808 30.1276 30.4527 29.9973C30.2247 29.867 29.9732 29.7829 29.7126 29.7498C29.452 29.7167 29.1875 29.7352 28.9341 29.8043C28.6807 29.8735 28.4433 29.9918 28.2357 30.1526C28.028 30.3135 27.8541 30.5136 27.7237 30.7417C27.5934 30.9698 27.5093 31.2213 27.4762 31.4818C27.4431 31.7424 27.4616 32.0069 27.5308 32.2604C27.5999 32.5138 27.7182 32.7511 27.8791 32.9587C28.2039 33.3781 28.682 33.6513 29.2083 33.7182C29.7345 33.7851 30.2658 33.6402 30.6852 33.3154C31.1046 32.9905 31.3778 32.5124 31.4446 31.9862C31.5115 31.4599 31.3666 30.9287 31.0418 30.5093Z" stroke="#F8F8F8" stroke-width="1.5" stroke-linecap="round" stroke-linejoin="round"/>
</svg>
