<svg width="29" height="23" viewBox="0 0 29 23" fill="none" xmlns="http://www.w3.org/2000/svg">
<path d="M13.3473 16.9412C13.3505 17.7494 13.1875 18.5487 12.8697 19.2844C12.5519 20.0201 12.0867 20.6748 11.506 21.2037C10.2599 22.4001 8.62224 23.043 6.93586 22.9978C4.79502 22.9978 3.10469 22.2137 1.86487 20.6457C0.626343 19.0865 -0.0353798 17.1091 0.00145929 15.0774C0.00145929 10.213 1.26951 6.55252 3.80562 4.09581C6.34173 1.6391 9.14912 0.278999 12.2278 0.0155031V5.3513C10.6764 5.52515 9.20759 6.17459 8.00382 7.21901C7.38431 7.70671 6.87397 8.33142 6.50875 9.04912C6.14353 9.76682 5.93231 10.5601 5.88999 11.3729C6.4013 11.1109 6.96374 10.9782 7.53244 10.9855C9.3713 10.9855 10.8002 11.5344 11.819 12.6323C12.3337 13.2072 12.734 13.8845 12.9965 14.6245C13.2589 15.3644 13.3782 16.1521 13.3473 16.9412ZM28.9985 16.9412C29.0024 17.7495 28.8398 18.549 28.5219 19.2848C28.2041 20.0207 27.7385 20.6753 27.1572 21.2037C25.9111 22.4001 24.2734 23.043 22.587 22.9978C20.4511 22.9978 18.7743 22.2137 17.5566 20.6457C16.3329 19.0791 15.6801 17.1048 15.7153 15.0774C15.7153 10.213 16.9698 6.55252 19.4789 4.09581C21.988 1.6391 24.7917 0.273829 27.89 0V5.33579C26.342 5.51638 24.8784 6.17119 23.6808 7.21901C23.0566 7.70382 22.5417 8.32737 22.1725 9.04532C21.8034 9.76327 21.5891 10.558 21.5449 11.3729C22.0548 11.1108 22.6161 10.9781 23.1836 10.9855C25.02 10.9855 26.4489 11.5344 27.4702 12.6323C27.9849 13.207 28.385 13.8844 28.6468 14.6245C28.9087 15.3645 29.027 16.1523 28.9948 16.9412H28.9985Z" fill="#121279"/>
</svg>
