<svg width="48" height="48" viewBox="0 0 48 48" fill="none" xmlns="http://www.w3.org/2000/svg">
<circle cx="24" cy="24" r="24" fill="white" fill-opacity="0.16"/>
<path d="M31.1335 15.76C30.2223 14.7194 29.7201 13.3832 29.7202 12H25.6002V28.5333C25.5691 29.4283 25.1916 30.2761 24.5473 30.898C23.903 31.5199 23.0423 31.8672 22.1469 31.8667C20.2535 31.8667 18.6802 30.32 18.6802 28.4C18.6802 26.1067 20.8935 24.3867 23.1735 25.0933V20.88C18.5735 20.2667 14.5469 23.84 14.5469 28.4C14.5469 32.84 18.2269 36 22.1335 36C26.3202 36 29.7202 32.6 29.7202 28.4V20.0133C31.3909 21.2131 33.3967 21.8569 35.4535 21.8533V17.7333C35.4535 17.7333 32.9469 17.8533 31.1335 15.76Z" fill="#F8F8F8"/>
</svg>
