<svg width="49" height="49" viewBox="0 0 49 49" fill="none" xmlns="http://www.w3.org/2000/svg">
<circle cx="24.9639" cy="24.5" r="24" fill="white" fill-opacity="0.16"/>
<path d="M34.6024 34.0788L27.4913 22.8132L34.5081 15.0322C34.6668 14.8518 34.7486 14.6157 34.7358 14.375C34.7229 14.1343 34.6165 13.9084 34.4395 13.7463C34.2625 13.5841 34.0293 13.4989 33.7904 13.5089C33.5515 13.519 33.3261 13.6236 33.1632 13.8L26.4792 21.2112L21.8796 13.9248C21.7976 13.7947 21.6843 13.6875 21.5503 13.6133C21.4163 13.539 21.2658 13.5 21.1129 13.5H15.6602C15.4973 13.4999 15.3373 13.544 15.1971 13.6276C15.0569 13.7113 14.9415 13.8314 14.8631 13.9754C14.7847 14.1194 14.7462 14.2819 14.7515 14.4461C14.7569 14.6103 14.8059 14.77 14.8935 14.9085L22.0046 26.173L14.9877 33.9597C14.9058 34.0484 14.8422 34.1527 14.8005 34.2664C14.7588 34.3801 14.7399 34.501 14.7449 34.6222C14.75 34.7433 14.7788 34.8622 14.8297 34.972C14.8807 35.0818 14.9527 35.1803 15.0417 35.2619C15.1307 35.3434 15.2349 35.4063 15.3482 35.447C15.4615 35.4876 15.5816 35.5052 15.7017 35.4987C15.8218 35.4922 15.9394 35.4617 16.0477 35.409C16.1561 35.3564 16.2529 35.2825 16.3327 35.1919L23.0167 27.7807L27.6163 35.067C27.6989 35.1961 27.8125 35.3021 27.9465 35.3754C28.0805 35.4486 28.2306 35.4867 28.383 35.4861H33.8357C33.9984 35.4861 34.1582 35.442 34.2983 35.3584C34.4383 35.2748 34.5536 35.1549 34.6319 35.0111C34.7103 34.8672 34.7489 34.7049 34.7437 34.5409C34.7385 34.3769 34.6897 34.2173 34.6024 34.0788ZM28.8817 33.654L17.3153 15.3322H20.6096L32.1806 33.654H28.8817Z" fill="white"/>
</svg>
