<svg width="49" height="48" viewBox="0 0 49 48" fill="none" xmlns="http://www.w3.org/2000/svg">
<circle cx="24.2197" cy="24" r="24" fill="white" fill-opacity="0.16"/>
<g clip-path="url(#clip0_112_637)">
<path d="M29.236 17.9628C28.4544 17.9627 27.704 18.2694 27.1462 18.817C26.5885 19.3645 26.268 20.1091 26.2537 20.8906L26.2249 22.5103C26.2232 22.5972 26.2032 22.6829 26.1661 22.7615C26.129 22.8402 26.0756 22.9101 26.0096 22.9667C25.9436 23.0234 25.8663 23.0654 25.7829 23.09C25.6995 23.1147 25.6118 23.1214 25.5256 23.1098L23.9203 22.8918C21.8081 22.6039 19.7842 21.631 17.8427 20.0134C17.2277 23.4173 18.4289 25.7753 21.3217 27.5945L23.1182 28.7237C23.2036 28.7773 23.2745 28.8511 23.3248 28.9384C23.375 29.0258 23.4031 29.1242 23.4066 29.225C23.41 29.3257 23.3887 29.4258 23.3445 29.5164C23.3004 29.6071 23.2347 29.6855 23.1532 29.7448L21.516 30.9408C22.4899 31.0015 23.4144 30.9583 24.1815 30.8061C29.0334 29.8374 32.2594 26.1867 32.2594 20.1646C32.2594 19.673 31.2187 17.9628 29.236 17.9628ZM24.197 20.8526C24.2149 19.8613 24.5249 18.8973 25.0881 18.0813C25.6513 17.2654 26.4427 16.6337 27.3632 16.2654C28.2837 15.8971 29.2924 15.8085 30.263 16.0107C31.2336 16.213 32.123 16.6971 32.8198 17.4024C33.551 17.3972 34.1731 17.5823 35.5645 16.7391C35.22 18.4256 35.0503 19.1578 34.3161 20.1646C34.3161 28.0233 29.4859 31.8448 24.5847 32.8227C21.224 33.4932 16.3372 32.3919 14.9365 30.9295C15.6502 30.874 18.5502 30.5624 20.2264 29.3355C18.8083 28.4008 13.1636 25.0791 16.8729 16.1488C18.614 18.1819 20.3797 19.5661 22.169 20.3003C23.3599 20.7888 23.6519 20.7785 24.198 20.8536L24.197 20.8526Z" fill="white"/>
</g>
<defs>
<clipPath id="clip0_112_637">
<rect width="24.6808" height="24.6808" fill="white" transform="translate(13.5029 12.2554)"/>
</clipPath>
</defs>
</svg>
