<svg width="28" height="28" viewBox="0 0 28 28" fill="none" xmlns="http://www.w3.org/2000/svg">
<g clip-path="url(#clip0_112_328)">
<path d="M4.6276 21.2227L11.7444 15.7135M20.0517 13.9183L17.4401 19.3469C17.3984 19.434 17.3363 19.5097 17.2591 19.5676C17.1818 19.6255 17.0918 19.6639 16.9966 19.6796L4.97367 21.6478C4.86536 21.6655 4.75427 21.6532 4.65248 21.6121C4.55069 21.5711 4.46211 21.5029 4.39638 21.415C4.33065 21.3271 4.29028 21.2229 4.27968 21.1137C4.26907 21.0044 4.28863 20.8944 4.33622 20.7955L9.53444 9.9915C9.57172 9.91392 9.62524 9.84527 9.69139 9.79021C9.75754 9.73514 9.83477 9.69495 9.91782 9.67237L15.5418 8.15253C15.6562 8.1215 15.7772 8.12501 15.8895 8.16264C16.0019 8.20027 16.1006 8.27032 16.1732 8.36397L19.9854 13.2909C20.0536 13.379 20.096 13.4844 20.1077 13.5952C20.1194 13.706 20.1 13.8179 20.0517 13.9183Z" stroke="#323F49" stroke-width="1.5" stroke-linecap="round" stroke-linejoin="round"/>
<path d="M20.213 13.5841L23.3757 11.1349C23.795 10.8102 24.0682 10.3323 24.1352 9.80618C24.2022 9.2801 24.0575 8.74896 23.7329 8.32955L21.8979 5.95678C21.7371 5.749 21.537 5.57494 21.3089 5.44453C21.0809 5.31412 20.8293 5.22992 20.5687 5.19674C20.3081 5.16356 20.0435 5.18204 19.7901 5.25115C19.5366 5.32025 19.2993 5.4386 19.0915 5.59946L15.9289 8.04862M14.1163 13.8764C13.9957 13.7206 13.8455 13.5901 13.6745 13.4924C13.5034 13.3947 13.3148 13.3316 13.1194 13.3068C12.924 13.2819 12.7256 13.2958 12.5355 13.3477C12.3455 13.3995 12.1675 13.4883 12.0117 13.6089C11.856 13.7295 11.7255 13.8796 11.6278 14.0507C11.53 14.2217 11.467 14.4104 11.4421 14.6058C11.4173 14.8012 11.4312 14.9996 11.483 15.1897C11.5349 15.3797 11.6236 15.5577 11.7443 15.7135C11.9879 16.028 12.3465 16.2329 12.7412 16.2831C13.1358 16.3332 13.5343 16.2245 13.8488 15.9809C14.1634 15.7373 14.3683 15.3787 14.4184 14.984C14.4686 14.5893 14.3599 14.1909 14.1163 13.8764Z" stroke="#323F49" stroke-width="1.5" stroke-linecap="round" stroke-linejoin="round"/>
</g>
<defs>
<clipPath id="clip0_112_328">
<rect width="24" height="24" fill="white" transform="translate(3.95996 0.369385) rotate(7.25609)"/>
</clipPath>
</defs>
</svg>
