<svg width="48" height="48" viewBox="0 0 48 48" fill="none" xmlns="http://www.w3.org/2000/svg">
<circle cx="24" cy="24" r="24" fill="white" fill-opacity="0.16"/>
<path d="M24.3333 35.6667C26.7467 35.6667 29.06 35.428 31.204 34.9907C33.884 34.444 35.2227 34.172 36.444 32.6014C37.6667 31.0294 37.6667 29.2254 37.6667 25.6174V23.0494C37.6667 19.4414 37.6667 17.636 36.444 16.0654C35.2227 14.4947 33.884 14.2214 31.204 13.676C28.942 13.2227 26.6403 12.9962 24.3333 13C21.92 13 19.6067 13.2387 17.4627 13.676C14.7827 14.2227 13.444 14.4947 12.2227 16.0654C11 17.6374 11 19.4414 11 23.0494V25.6174C11 29.2254 11 31.0307 12.2227 32.6014C13.444 34.172 14.7827 34.4454 17.4627 34.9907C19.6067 35.428 21.92 35.6667 24.3333 35.6667Z" stroke="#FAFAFA" stroke-width="2" stroke-linecap="round" stroke-linejoin="round"/>
<path d="M29.6157 24.7507C29.4183 25.5587 28.365 26.1374 26.2597 27.2987C23.969 28.5614 22.8237 29.1921 21.897 28.9481C21.5882 28.8683 21.2997 28.7243 21.0503 28.5254C20.333 27.9454 20.333 26.7414 20.333 24.3334C20.333 21.9254 20.333 20.7214 21.0503 20.1414C21.293 19.9454 21.5837 19.8001 21.897 19.7187C22.8237 19.4747 23.969 20.1054 26.2597 21.3681C28.3663 22.5281 29.4183 23.1081 29.6157 23.9161C29.6823 24.1907 29.6823 24.4761 29.6157 24.7507Z" stroke="#FAFAFA" stroke-width="2" stroke-linecap="round" stroke-linejoin="round"/>
</svg>
